<svg xmlns="http://www.w3.org/2000/svg" version="1.1" xmlns:xlink="http://www.w3.org/1999/xlink" xmlns:svgjs="http://svgjs.com/svgjs" width="512" height="512" x="0" y="0" viewBox="0 0 128 128" style="enable-background:new 0 0 512 512" xml:space="preserve" class=""><g><path xmlns="http://www.w3.org/2000/svg" d="m101.46 72.418a17.268 17.268 0 0 0 -8.023-22.964 14.315 14.315 0 0 1 -7.3-8.308l-7.426-22.287a26.525 26.525 0 0 0 -51.28 3.746c-.358 1.709-7.058 34.538 2.589 48.056a31.491 31.491 0 0 0 5.977 6c-1.666 8.324-6.03 30.1-7.6 37.746a1.923 1.923 0 0 0 1.96 2.4h.965a2.059 2.059 0 0 0 1.95-1.4l8.325-35.43a33.005 33.005 0 0 0 13.535 2.741c-.791 7.527-3.455 32.825-4.363 40.834a2 2 0 0 0 1.988 2.22h.659a2.037 2.037 0 0 0 2.1-1.693l6.44-41.358h4.716l7.214 30.7a2.061 2.061 0 0 0 1.95 1.4h.964a1.923 1.923 0 0 0 1.96-2.4c-1.191-5.786-3.981-19.673-5.99-29.7h12.312c.474 0 .945-.023 1.414-.06l8.574 36.491a2.059 2.059 0 0 0 1.95 1.4h.965a1.923 1.923 0 0 0 1.96-2.4c-1.528-7.426-5.694-28.21-7.458-37.022a18.225 18.225 0 0 0 8.973-8.712z" fill="#000000" data-original="#000000" class=""></path></g></svg>