<svg xmlns="http://www.w3.org/2000/svg" version="1.1" xmlns:xlink="http://www.w3.org/1999/xlink" xmlns:svgjs="http://svgjs.com/svgjs" width="512" height="512" x="0" y="0" viewBox="0 0 512.999 512.999" style="enable-background:new 0 0 512 512" xml:space="preserve" class=""><g><g xmlns="http://www.w3.org/2000/svg"><path d="m15.5 30h60.5v47.913c-17.459 6.192-30 22.865-30 42.42 0 24.813 20.186 45 45 45s45-20.187 45-45c0-19.555-12.541-36.228-30-42.42v-47.913h90.004v47.913c-17.459 6.192-30 22.865-30 42.42 0 24.813 20.186 45 45 45s45-20.187 45-45c0-19.555-12.541-36.228-30-42.42v-47.913h60.499c8.284 0 15-6.716 15-15s-6.716-15-15-15h-271.003c-8.284 0-15 6.716-15 15s6.715 15 15 15z" fill="#000000" data-original="#000000"></path><path d="m286.5 142.992c0 8.284 6.716 15 15 15h5.002v-30h-5.002c-8.285 0-15 6.716-15 15z" fill="#000000" data-original="#000000"></path><path d="m482.503 157.992c8.284 0 15-6.716 15-15s-6.716-15-15-15h-5.002v30z" fill="#000000" data-original="#000000"></path><path d="m477.501 112.99c0-24.813-20.188-45-45-45h-25.5v-5.001c0-8.284-6.717-15-15-15-8.285 0-15 6.716-15 15v5.001h-25.5c-24.814 0-45 20.187-45 45v15.002h171z" fill="#000000" data-original="#000000"></path><path d="m497.5 251.996h-482c-8.284 0-15 6.716-15 15v45.003h512v-45.003c0-8.285-6.717-15-15-15z" fill="#000000" data-original="#000000"></path><path d="m151.001 512.999h120.501v-171h-120.501zm30.003-95.5c0-8.284 6.716-15 15-15s15 6.716 15 15v20.001c0 8.284-6.716 15-15 15s-15-6.716-15-15z" fill="#000000" data-original="#000000"></path><path d="m.5 497.999c0 8.284 6.716 15 15 15h105.502v-171h-120.502zm60.492-80.5c0-8.284 6.716-15 15-15s15 6.716 15 15v20.001c0 8.284-6.716 15-15 15s-15-6.716-15-15z" fill="#000000" data-original="#000000"></path><path d="m376.502 401.999h60.997v51.002h-60.997z" fill="#000000" data-original="#000000"></path><path d="m301.502 512.999h195.998c8.283 0 15-6.716 15-15v-156h-210.998zm45-126c0-8.284 6.716-15 15-15h90.998c8.283 0 15 6.716 15 15v81.001c0 8.284-6.717 15-15 15h-90.997c-8.284 0-15-6.716-15-15v-81.001z" fill="#000000" data-original="#000000"></path><path d="m306.501 191.994c0 11.518 4.354 22.034 11.496 30.002h148.008c7.142-7.968 11.496-18.484 11.496-30.002v-34.002h-171z" fill="#000000" data-original="#000000"></path></g></g></svg>