<svg xmlns="http://www.w3.org/2000/svg" version="1.1" xmlns:xlink="http://www.w3.org/1999/xlink" xmlns:svgjs="http://svgjs.com/svgjs" width="512" height="512" x="0" y="0" viewBox="0 0 512 512" style="enable-background:new 0 0 512 512" xml:space="preserve" class=""><g><g xmlns="http://www.w3.org/2000/svg"><path d="m196 482h-15v-30h-30v30h-15c-8.291 0-15 6.709-15 15s6.709 15 15 15h60c8.291 0 15-6.709 15-15s-6.709-15-15-15z" fill="#000000" data-original="#000000" class=""></path><path d="m497 240h-136v-30h105c8.291 0 15-6.709 15-15v-180c0-8.291-6.709-15-15-15h-240c-8.291 0-15 6.709-15 15v23.018c16.523 5.876 31.948 14.727 45.205 26.728 28.301 24.653 44.795 61.333 44.795 100.254v45h30v30h-60v-75c0-30.249-12.817-58.755-34.937-78.018-19.218-17.402-44.106-26.982-70.063-26.982-57.891 0-105 47.109-105 105v75h-46c-8.291 0-15 6.709-15 15v242c0 8.291 6.709 15 15 15s15-6.709 15-15v-227h31v15c0 8.291 6.709 15 15 15h75v30h-45c-24.814 0-45 20.186-45 45v30c0 8.291 6.709 15 15 15h180c8.291 0 15-6.709 15-15v-30c0-24.814-20.186-45-45-45h-45v-30h75c8.291 0 15-6.709 15-15v-15h30v60h211v-75c0-8.291-6.709-15-15-15z" fill="#000000" data-original="#000000" class=""></path><path d="m301 360v137c0 8.291 6.709 15 15 15s15-6.709 15-15v-45h151v45c0 8.291 6.709 15 15 15s15-6.709 15-15v-137z" fill="#000000" data-original="#000000" class=""></path></g></g></svg>