<svg xmlns="http://www.w3.org/2000/svg" version="1.1" xmlns:xlink="http://www.w3.org/1999/xlink" xmlns:svgjs="http://svgjs.com/svgjs" width="512" height="512" x="0" y="0" viewBox="0 0 507.33 507.33" style="enable-background:new 0 0 512 512" xml:space="preserve" class=""><g><path xmlns="http://www.w3.org/2000/svg" d="m63.475 385.425-4.75 19.01c-1.77 7.08-.21 14.43 4.28 20.18s11.25 9.05 18.54 9.05c10.81 0 20.2-7.33 22.82-17.82l7.55-30.18h-42.25c-2.08 0-4.15-.08-6.19-.24z" fill="#000000" data-original="#000000" class=""></path><path xmlns="http://www.w3.org/2000/svg" d="m443.855 385.425c-2.04.16-4.11.24-6.19.24h-42.24l7.54 30.18c2.62 10.49 12.01 17.82 22.82 17.82 7.29 0 14.05-3.3 18.54-9.05s6.05-13.1 4.28-20.18z" fill="#000000" data-original="#000000" class=""></path><path xmlns="http://www.w3.org/2000/svg" d="m46.665 161.865c25.45 2.11 46.9 20.95 51.98 46.33l12.31 61.56c1.38 6.9 7.49 11.91 14.53 11.91h256.36c7.04 0 13.15-5.01 14.53-11.91l12.31-61.56c4.72-23.59 23.59-41.53 46.66-45.64l2.01-11.24c3.44-19.29-1.8-38.97-14.38-54s-31.04-23.65-50.64-23.65h-282.87c-20.04 0-38.76 8.94-51.36 24.52-12.6 15.59-17.42 35.77-13.22 55.36z" fill="#000000" data-original="#000000" class=""></path><path xmlns="http://www.w3.org/2000/svg" d="m496.032 190.935c-7.891-8.433-19.039-13.27-30.588-13.27-4.577 0-9.012.758-13.181 2.149l.002-.009c-14.041 4.598-25.091 17.006-27.893 31.531l-12.311 61.555c-2.871 14.354-15.58 24.773-30.219 24.773h-256.354c-14.639 0-27.348-10.418-30.219-24.773l-12.311-61.555c-3.088-16.213-16.536-29.659-32.723-32.821l.001.004c-14.017-2.974-29.198 1.904-38.938 12.416-7.89 8.434-11.975 19.879-11.207 31.402l5.574 83.603c.147 34.413 27.599 62.487 61.764 63.668l-.004.017c.74.03 1.49.04 2.24.04h46.25 275.51 46.24c.75 0 1.5-.01 2.24-.04l-.004-.017c34.165-1.181 61.617-29.255 61.763-63.668l5.574-83.603c.768-11.523-3.316-22.969-11.206-31.402z" fill="#000000" data-original="#000000" class=""></path></g></svg>