<svg xmlns="http://www.w3.org/2000/svg" version="1.1" xmlns:xlink="http://www.w3.org/1999/xlink" xmlns:svgjs="http://svgjs.com/svgjs" width="512" height="512" x="0" y="0" viewBox="0 0 64 64" style="enable-background:new 0 0 512 512" xml:space="preserve" class=""><g><g xmlns="http://www.w3.org/2000/svg" id="Teacher_Desk" data-name="Teacher Desk"><path d="m1 22h62v3h-62z" fill="#000000" data-original="#000000"></path><path d="m13.9 48h36.2a5 5 0 0 1 3.9-3.9v-8.2a5 5 0 0 1 -3.9-3.9h-36.2a5 5 0 0 1 -3.9 3.9v8.2a5 5 0 0 1 3.9 3.9z" fill="#000000" data-original="#000000"></path><path d="m4 53h56v-26h-56zm4-18a1 1 0 0 1 1-1 3 3 0 0 0 3-3 1 1 0 0 1 1-1h38a1 1 0 0 1 1 1 3 3 0 0 0 3 3 1 1 0 0 1 1 1v10a1 1 0 0 1 -1 1 3 3 0 0 0 -3 3 1 1 0 0 1 -1 1h-38a1 1 0 0 1 -1-1 3 3 0 0 0 -3-3 1 1 0 0 1 -1-1z" fill="#000000" data-original="#000000"></path><path d="m56 55h4v7h-4z" fill="#000000" data-original="#000000"></path><path d="m4 55h4v7h-4z" fill="#000000" data-original="#000000"></path><path d="m15 14h-1v-6a1 1 0 0 0 -2 0v6h-2v-3a1 1 0 0 0 -2 0v3h-1v6h8z" fill="#000000" data-original="#000000"></path><path d="m62 18a2 2 0 0 0 -2-2h-14v4h14a2 2 0 0 0 2-2z" fill="#000000" data-original="#000000"></path><path d="m50 14h10v-4h-10a2 2 0 0 0 0 4z" fill="#000000" data-original="#000000"></path><path d="m42 9a5 5 0 0 0 -5-5h-10a5 5 0 0 0 -5 5v11h20zm-5 9h-10a1 1 0 0 1 0-2h10a1 1 0 0 1 0 2zm0-6h-10a1 1 0 0 1 0-2h10a1 1 0 0 1 0 2z" fill="#000000" data-original="#000000"></path><path d="m41 61a1 1 0 0 0 2 0v-6h-2z" fill="#000000" data-original="#000000"></path><path d="m21 61a1 1 0 0 0 2 0v-6h-2z" fill="#000000" data-original="#000000"></path></g></g></svg>